<svg width="230" height="68" viewBox="0 0 230 68" fill="none" xmlns="http://www.w3.org/2000/svg">
<path d="M47.2683 11.5746C47.2683 17.9669 41.8069 23.1491 35.0701 23.1491C28.3333 23.1491 22.8719 17.9669 22.8719 11.5746C22.8719 5.18217 28.3333 0 35.0701 0C41.8069 0 47.2683 5.18217 47.2683 11.5746Z" fill="white"/>
<path d="M24.3964 47.7455C24.3964 54.1379 18.935 59.3201 12.1982 59.3201C5.46138 59.3201 0 54.1379 0 47.7455C0 41.3531 5.46138 36.171 12.1982 36.171C18.935 36.171 24.3964 41.3531 24.3964 47.7455Z" fill="white"/>
<path d="M68.615 47.7455C68.615 54.1379 63.1537 59.3201 56.4169 59.3201C49.6801 59.3201 44.2187 54.1379 44.2187 47.7455C44.2187 41.3531 49.6801 36.171 56.4169 36.171C63.1537 36.171 68.615 41.3531 68.615 47.7455Z" fill="white"/>
<path d="M23.6342 29.6587C27.2937 25.0289 25.413 18.8076 23.6342 15.1904L46.5058 15.9139C44.7269 18.5663 42.6938 23.8715 45.7434 29.6587C48.793 35.446 54.6379 36.1695 57.9416 36.1695L47.2681 55.7016C45.9975 53.049 41.6264 47.744 34.3075 47.744C26.9887 47.744 22.1093 53.5312 20.5846 56.4249L9.91113 36.1695C12.9605 35.9282 19.9747 34.2886 23.6342 29.6587Z" fill="white"/>
<path d="M65.5655 23.1482C65.5655 27.9424 61.4696 31.829 56.417 31.829C51.3644 31.829 47.2684 27.9424 47.2684 23.1482C47.2684 18.3539 51.3644 14.4673 56.417 14.4673C61.4696 14.4673 65.5655 18.3539 65.5655 23.1482Z" fill="white"/>
<path d="M22.8715 23.1482C22.8715 27.9424 18.7755 31.829 13.7229 31.829C8.67027 31.829 4.57428 27.9424 4.57428 23.1482C4.57428 18.3539 8.67027 14.4673 13.7229 14.4673C18.7755 14.4673 22.8715 18.3539 22.8715 23.1482Z" fill="white"/>
<path d="M44.2188 59.3192C44.2188 64.1135 40.1228 68.0001 35.0702 68.0001C30.0176 68.0001 25.9216 64.1135 25.9216 59.3192C25.9216 54.5249 30.0176 50.6383 35.0702 50.6383C40.1228 50.6383 44.2188 54.5249 44.2188 59.3192Z" fill="white"/>
<path d="M81.4833 12.1875H87.6083L99.1201 42.8945L110.604 12.1875H116.729L101.526 52H96.6591L81.4833 12.1875ZM78.6943 12.1875H84.5185L85.5302 38.7656V52H78.6943V12.1875ZM113.694 12.1875H119.546V52H112.683V38.7656L113.694 12.1875ZM135.624 48.7734L143.663 22.4141H150.718L138.851 56.5117C138.577 57.2409 138.222 58.0339 137.784 58.8906C137.347 59.7474 136.772 60.5586 136.061 61.3242C135.369 62.1081 134.503 62.737 133.464 63.2109C132.425 63.7031 131.167 63.9492 129.69 63.9492C129.107 63.9492 128.542 63.8945 127.995 63.7852C127.466 63.694 126.965 63.5938 126.491 63.4844L126.464 58.4531C126.646 58.4714 126.865 58.4896 127.12 58.5078C127.394 58.526 127.612 58.5352 127.776 58.5352C128.87 58.5352 129.782 58.3984 130.511 58.125C131.24 57.8698 131.832 57.4505 132.288 56.8672C132.762 56.2839 133.163 55.5 133.491 54.5156L135.624 48.7734ZM131.085 22.4141L138.112 44.5625L139.288 51.5078L134.722 52.6836L123.976 22.4141H131.085ZM177.487 12.1875H184.323V38.793C184.323 41.819 183.667 44.3529 182.354 46.3945C181.042 48.4362 179.255 49.9766 176.995 51.0156C174.753 52.0365 172.246 52.5469 169.476 52.5469C166.614 52.5469 164.061 52.0365 161.819 51.0156C159.577 49.9766 157.809 48.4362 156.515 46.3945C155.239 44.3529 154.601 41.819 154.601 38.793V12.1875H161.436V38.793C161.436 40.707 161.765 42.2839 162.421 43.5234C163.077 44.7448 164.007 45.6471 165.21 46.2305C166.413 46.8138 167.835 47.1055 169.476 47.1055C171.116 47.1055 172.529 46.8138 173.714 46.2305C174.917 45.6471 175.847 44.7448 176.503 43.5234C177.159 42.2839 177.487 40.707 177.487 38.793V12.1875ZM197.667 28.7305V52H191.077V22.4141H197.284L197.667 28.7305ZM196.491 36.1133L194.358 36.0859C194.377 33.9896 194.668 32.0664 195.233 30.3164C195.817 28.5664 196.619 27.0625 197.64 25.8047C198.679 24.5469 199.918 23.5807 201.358 22.9062C202.798 22.2135 204.403 21.8672 206.171 21.8672C207.593 21.8672 208.878 22.0677 210.026 22.4688C211.193 22.8516 212.186 23.4805 213.007 24.3555C213.845 25.2305 214.483 26.3698 214.921 27.7734C215.358 29.1589 215.577 30.8633 215.577 32.8867V52H208.96V32.8594C208.96 31.4375 208.75 30.3164 208.331 29.4961C207.93 28.6576 207.338 28.0651 206.554 27.7188C205.788 27.3542 204.831 27.1719 203.683 27.1719C202.552 27.1719 201.541 27.4089 200.647 27.8828C199.754 28.3568 198.998 29.0039 198.378 29.8242C197.776 30.6445 197.311 31.5924 196.983 32.668C196.655 33.7435 196.491 34.8919 196.491 36.1133ZM229.358 22.4141V52H222.741V22.4141H229.358ZM222.304 14.6484C222.304 13.6458 222.632 12.8164 223.288 12.1602C223.963 11.4857 224.892 11.1484 226.077 11.1484C227.244 11.1484 228.164 11.4857 228.839 12.1602C229.513 12.8164 229.851 13.6458 229.851 14.6484C229.851 15.6328 229.513 16.4531 228.839 17.1094C228.164 17.7656 227.244 18.0938 226.077 18.0938C224.892 18.0938 223.963 17.7656 223.288 17.1094C222.632 16.4531 222.304 15.6328 222.304 14.6484Z" fill="white"/>
</svg>
