<svg width="69" height="64" viewBox="0 0 69 64" fill="none" xmlns="http://www.w3.org/2000/svg">
<path d="M47.2683 10.8273C47.2683 16.8071 41.8069 21.6547 35.0701 21.6547C28.3333 21.6547 22.8719 16.8071 22.8719 10.8273C22.8719 4.84763 28.3333 0 35.0701 0C41.8069 0 47.2683 4.84763 47.2683 10.8273Z" fill="white"/>
<path d="M24.3964 44.6633C24.3964 50.643 18.935 55.4906 12.1982 55.4906C5.46138 55.4906 0 50.643 0 44.6633C0 38.6836 5.46138 33.8359 12.1982 33.8359C18.935 33.8359 24.3964 38.6836 24.3964 44.6633Z" fill="white"/>
<path d="M68.615 44.6633C68.615 50.643 63.1537 55.4906 56.4169 55.4906C49.6801 55.4906 44.2187 50.643 44.2187 44.6633C44.2187 38.6836 49.6801 33.8359 56.4169 33.8359C63.1537 33.8359 68.615 38.6836 68.615 44.6633Z" fill="white"/>
<path d="M23.6342 27.744C27.2937 23.4131 25.413 17.5934 23.6342 14.2098L46.5058 14.8866C44.7269 17.3678 42.6938 22.3304 45.7434 27.744C48.793 33.1578 54.6379 33.8345 57.9416 33.8345L47.2681 52.1058C45.9975 49.6244 41.6264 44.6619 34.3075 44.6619C26.9887 44.6619 22.1093 50.0755 20.5846 52.7824L9.91113 33.8345C12.9605 33.6088 19.9747 32.0751 23.6342 27.744Z" fill="white"/>
<path d="M65.5655 21.6538C65.5655 26.1386 61.4696 29.7743 56.417 29.7743C51.3644 29.7743 47.2684 26.1386 47.2684 21.6538C47.2684 17.169 51.3644 13.5333 56.417 13.5333C61.4696 13.5333 65.5655 17.169 65.5655 21.6538Z" fill="white"/>
<path d="M22.8715 21.6538C22.8715 26.1386 18.7755 29.7743 13.7229 29.7743C8.67027 29.7743 4.57428 26.1386 4.57428 21.6538C4.57428 17.169 8.67027 13.5333 13.7229 13.5333C18.7755 13.5333 22.8715 17.169 22.8715 21.6538Z" fill="white"/>
<path d="M44.2188 55.4897C44.2188 59.9745 40.1228 63.6102 35.0702 63.6102C30.0176 63.6102 25.9216 59.9745 25.9216 55.4897C25.9216 51.0049 30.0176 47.3692 35.0702 47.3692C40.1228 47.3692 44.2188 51.0049 44.2188 55.4897Z" fill="white"/>
</svg>
